<svg xmlns="http://www.w3.org/2000/svg" viewBox="0 0 21 21" width="21" height="21">
	<style>
		tspan { white-space:pre }
		.shp0 { fill: #c7b299 } 
	</style>
	<g id="CONTENT">
		<g id="Excellent for Mobile Devices">
			<g id="Features">
				<g id="Arrows">
					<path id="01" class="shp0" d="M10.5 0C4.7 0 0 4.7 0 10.5C0 16.3 4.7 21 10.5 21C16.3 21 21 16.3 21 10.5C21 4.7 16.3 0 10.5 0ZM13.79 11L9.25 15.54C8.98 15.81 8.53 15.81 8.26 15.54C7.99 15.26 7.99 14.82 8.26 14.55L12.31 10.5L8.26 6.45C7.99 6.18 7.99 5.74 8.26 5.46C8.53 5.19 8.98 5.19 9.25 5.46L13.79 10C13.93 10.14 14 10.32 13.99 10.5C13.99 10.68 13.93 10.86 13.79 11Z" />
				</g>
			</g>
		</g>
	</g>
</svg>