<svg xmlns="http://www.w3.org/2000/svg" viewBox="0 0 48 44" width="48" height="44">
	<style>
		tspan { white-space:pre }
		.shp0 { fill: #c7b299 } 
	</style>
	<g id="CONTENT">
		<g id="Counters">
			<g id="Cups of coffee consumed">
				<path id="icon" class="shp0" d="M46.04 42.75C46.04 43.44 45.49 44 44.81 44L1.23 44C0.55 44 0 43.44 0 42.75C0 42.06 0.55 41.5 1.23 41.5L44.81 41.5C45.49 41.5 46.04 42.06 46.04 42.75ZM21.77 22.21C22.01 22.44 22.31 22.55 22.61 22.55C22.94 22.55 23.27 22.42 23.51 22.15C23.98 21.65 23.95 20.86 23.45 20.38C21.34 18.38 21.79 14.31 23.61 12.01C26.08 8.89 26.62 3.33 23.45 0.34C22.95 -0.13 22.17 -0.11 21.71 0.4C21.24 0.9 21.27 1.7 21.77 2.17C23.67 3.96 23.63 7.99 21.68 10.45C20.4 12.07 19.64 14.23 19.59 16.4C19.53 18.76 20.3 20.82 21.77 22.21ZM48 19.61L48 22.01C48 25.45 45.24 28.25 41.85 28.25L39.09 28.25C37.22 33.52 32.24 37.3 26.41 37.3L19.64 37.3C12.21 37.3 6.16 31.18 6.16 23.64L6.16 11.23C6.16 10.54 6.72 9.98 7.4 9.98L15.31 9.98C16.92 7.5 16.85 3.85 15.06 2.17C14.56 1.69 14.54 0.9 15 0.4C15.47 -0.11 16.25 -0.13 16.75 0.34C19.91 3.33 19.37 8.89 16.9 12.01C15.08 14.31 14.63 18.38 16.75 20.38C17.24 20.86 17.27 21.65 16.81 22.15C16.34 22.66 15.56 22.68 15.06 22.21C13.6 20.82 12.82 18.76 12.88 16.4C12.91 15.05 13.22 13.7 13.76 12.48L8.63 12.48L8.63 23.64C8.63 29.8 13.57 34.8 19.64 34.8L26.41 34.8C32.47 34.8 37.41 29.8 37.41 23.64L37.41 12.48L28.13 12.48C27.45 12.48 26.9 11.92 26.9 11.23C26.9 10.54 27.45 9.98 28.13 9.98L38.65 9.98C39.33 9.98 39.88 10.54 39.88 11.23L39.88 13.38L41.85 13.38C45.24 13.38 48 16.17 48 19.61ZM45.53 19.61C45.53 17.55 43.88 15.88 41.85 15.88L39.88 15.88L39.88 25.75L41.85 25.75C43.88 25.75 45.53 24.07 45.53 22.01L45.53 19.61Z" />
			</g>
		</g>
	</g>
</svg>