<svg xmlns="http://www.w3.org/2000/svg" viewBox="0 0 54 44" width="54" height="44">
	<style>
		tspan { white-space:pre }
		.shp0 { fill: #c7b299 } 
	</style>
	<g id="CONTENT">
		<g id="Counters">
			<g id="We Launched">
				<path id="icon" class="shp0" d="M52.31 40.61L1.69 40.61C0.76 40.61 0 41.37 0 42.3C0 43.24 0.76 44 1.69 44L52.31 44C53.24 44 54 43.24 54 42.3C54 41.37 53.24 40.61 52.31 40.61ZM28.69 6.77L28.69 3.39L32.06 3.39C32.99 3.39 33.75 2.63 33.75 1.69C33.75 0.76 32.99 0 32.06 0L21.94 0C21.01 0 20.25 0.76 20.25 1.69C20.25 2.63 21.01 3.39 21.94 3.39L25.31 3.39C25.31 3.39 25.3 6.91 25.31 6.77C11.19 7.65 0 19.46 0 33.84C0 35.22 0 34.6 0 35.54C0 36.47 0.76 37.23 1.69 37.23L52.31 37.23C53.24 37.23 54 36.47 54 35.54C54 34.6 54 35.32 54 33.84C54 19.46 42.81 7.65 28.69 6.77ZM3.38 33.84C3.38 20.76 13.95 10.16 27 10.16C40.05 10.16 50.62 20.76 50.62 33.84L3.38 33.84Z" />
			</g>
		</g>
	</g>
</svg>