<svg xmlns="http://www.w3.org/2000/svg" viewBox="0 0 26 26" width="26" height="26">
	<style>
		tspan { white-space:pre }
		.shp0 { fill: #c7b299 } 
	</style>
	<g id="CONTENT">
		<g id="Latest Projects">
			<g id="Project 02">
				<g id="Hover">
					<path id="link" class="shp0" d="M23.5 2.49C21.1 0.09 17.16 0.09 14.76 2.49L10.03 7.22C11.65 6.76 13.41 6.88 14.94 7.59L17.4 5.14C18.35 4.18 19.9 4.18 20.86 5.14C21.81 6.09 21.81 7.64 20.86 8.6L17.77 11.69L15.74 13.71C14.79 14.67 13.24 14.67 12.28 13.71L9.64 16.36C10.26 16.97 10.97 17.43 11.72 17.72C13.75 18.52 16.1 18.22 17.87 16.82C18.05 16.68 18.23 16.53 18.39 16.36L21.57 13.17L23.5 11.24C25.92 8.84 25.92 4.91 23.5 2.49ZM10.94 18.52L8.59 20.88C7.63 21.83 6.08 21.83 5.13 20.88C4.17 19.92 4.17 18.37 5.13 17.42L10.24 12.3C11.19 11.35 12.74 11.35 13.7 12.3L16.34 9.66C15.73 9.04 15.01 8.58 14.26 8.29C12.13 7.44 9.63 7.83 7.84 9.43C7.75 9.5 7.67 9.59 7.6 9.66L2.48 14.77C0.08 17.18 0.08 21.12 2.48 23.52C4.89 25.93 8.82 25.93 11.23 23.52L15.85 18.85C13.49 19.39 12.95 19.33 10.94 18.52Z" />
				</g>
			</g>
		</g>
	</g>
</svg>