<svg xmlns="http://www.w3.org/2000/svg" viewBox="0 0 26 25" width="26" height="25">
	<style>
		tspan { white-space:pre }
		.shp0 { fill: #ffffff } 
	</style>
	<g id="CONTENT">
		<g id="Latest Projects">
			<g id="Project 02">
				<g id="Hover">
					<path id="lupa" class="shp0" d="M11.3 4.08C10.58 4.08 9.99 4.66 9.99 5.38C9.99 6.09 10.58 6.67 11.3 6.67C12.91 6.67 14.35 7.56 15.05 8.98C15.28 9.44 15.75 9.71 16.23 9.71C16.43 9.71 16.62 9.67 16.81 9.58C17.46 9.27 17.74 8.49 17.42 7.85C16.27 5.52 13.92 4.08 11.3 4.08ZM25.46 21.88L21.07 17.56C22.37 15.76 23.14 13.57 23.14 11.2C23.14 5.13 18.12 0.19 11.96 0.19C5.79 0.19 0.78 5.13 0.78 11.2C0.78 17.28 5.79 22.22 11.96 22.22C14.53 22.22 16.9 21.35 18.79 19.9L23.13 24.17C23.45 24.49 23.87 24.65 24.29 24.65C24.71 24.65 25.14 24.49 25.46 24.17C26.1 23.54 26.1 22.51 25.46 21.88ZM3.41 11.2C3.41 6.56 7.24 2.78 11.96 2.78C16.67 2.78 20.51 6.56 20.51 11.2C20.51 13.13 19.84 14.91 18.72 16.34C18.36 16.81 17.94 17.24 17.48 17.62C15.99 18.87 14.06 19.63 11.96 19.63C7.24 19.63 3.41 15.85 3.41 11.2Z" />
				</g>
			</g>
		</g>
	</g>
</svg>