<svg xmlns="http://www.w3.org/2000/svg" viewBox="0 0 52 36" width="52" height="36">
	<style>
		tspan { white-space:pre }
		.shp0 { fill: #555555 } 
	</style>
	<g id="CONTENT">
		<g id="Services">
			<g id="Marketing">
				<path id="icon" class="shp0" d="M9 13.25C10 11.19 12.47 9.64 14.74 9.64L40.95 9.64L40.95 7.98C40.95 6.62 39.84 5.5 38.49 5.5L27.67 5.5L27.67 4.06C27.67 2 26.02 0.33 23.99 0.33L17.7 0.33C16.72 0.33 15.79 0.72 15.09 1.43C14.39 2.13 14.01 3.06 14.01 4.06L14.01 5.5L3.2 5.5C1.84 5.5 0.74 6.62 0.74 7.98L0.74 30.15L9 13.25ZM16.47 4.06C16.47 3.73 16.6 3.42 16.83 3.18C17.06 2.94 17.37 2.82 17.7 2.82L23.99 2.82C24.67 2.82 25.22 3.37 25.22 4.06L25.22 5.5L16.47 5.5L16.47 4.06ZM41.92 33.76C41.33 34.98 39.73 35.98 38.38 35.98L3.08 35.98C1.73 35.98 1.11 34.98 1.71 33.76L11.2 14.34C11.8 13.12 13.39 12.12 14.74 12.12L50.04 12.12C51.39 12.12 52.01 13.12 51.41 14.34L41.92 33.76Z" />
			</g>
		</g>
	</g>
</svg>