<svg xmlns="http://www.w3.org/2000/svg" viewBox="0 0 70 70" width="70" height="70">
	<style>
		tspan { white-space:pre }
		.shp0 { fill: #ffffff } 
	</style>
	<g id="CONTENT">
		<g id="Video Presentation">
			<g id="Play Video">
				<path id="icon-play" class="shp0" d="M29.93 51.82C29.64 51.82 29.34 51.76 29.06 51.63C28.34 51.29 27.87 50.56 27.87 49.76L27.87 20.24C27.87 19.44 28.34 18.71 29.06 18.37C29.78 18.03 30.64 18.14 31.25 18.65L48.97 33.42C49.44 33.81 49.71 34.39 49.71 35C49.71 35.61 49.44 36.19 48.97 36.58L31.25 51.34C30.88 51.66 30.41 51.82 29.93 51.82ZM31.99 24.63L31.99 45.36L44.43 35L31.99 24.63ZM34.94 70C29.07 70 23.17 68.54 17.83 65.53C16.84 64.97 16.49 63.71 17.05 62.72C17.6 61.73 18.86 61.38 19.85 61.94C31.87 68.7 47.08 66.61 56.85 56.85C68.89 44.8 68.89 25.2 56.85 13.15C44.8 1.1 25.2 1.1 13.15 13.15C1.1 25.2 1.1 44.8 13.15 56.85C13.95 57.65 13.95 58.95 13.15 59.76C12.35 60.56 11.04 60.56 10.24 59.76C-3.42 46.1 -3.42 23.89 10.24 10.24C23.89 -3.42 46.1 -3.42 59.76 10.24C73.41 23.89 73.41 46.1 59.76 59.76C53.03 66.48 44.03 70 34.94 70Z" />
			</g>
		</g>
	</g>
</svg>