<svg xmlns="http://www.w3.org/2000/svg" viewBox="0 0 49 49" width="49" height="49">
	<style>
		tspan { white-space:pre }
		.shp0 { fill: #555555 } 
	</style>
	<g id="CONTENT">
		<g id="Services">
			<g id="Web &amp; App design">
				<path id="icon" class="shp0" d="M47.67 17.47C47.04 16.85 46.04 16.85 45.42 17.47L31.57 31.31L12.11 39.89L9.11 36.89L17.68 17.42L31.53 3.58C32.15 2.95 32.15 1.95 31.53 1.33C30.9 0.71 29.9 0.71 29.28 1.33L15.01 15.59L0.53 48.46L33.4 33.99L47.67 19.72C48.29 19.1 48.29 18.09 47.67 17.47ZM27.5 28.47C27.81 28.77 28.21 28.93 28.62 28.93C29.03 28.93 29.43 28.77 29.75 28.47L43.08 15.13C43.7 14.51 43.7 13.51 43.08 12.88C42.45 12.26 41.45 12.26 40.83 12.88L27.5 26.22C26.88 26.84 26.88 27.84 27.5 28.47ZM24.02 24.99C24.33 25.29 24.73 25.45 25.14 25.45C25.55 25.45 25.95 25.29 26.26 24.99L39.6 11.65C40.22 11.03 40.22 10.02 39.6 9.4C38.97 8.78 37.97 8.78 37.35 9.4L24.02 22.73C23.39 23.35 23.39 24.36 24.02 24.99ZM20.53 21.5C20.84 21.81 21.25 21.97 21.66 21.97C22.07 21.97 22.47 21.81 22.78 21.5L36.12 8.17C36.74 7.55 36.74 6.54 36.12 5.92C35.5 5.3 34.49 5.3 33.87 5.92L20.53 19.25C19.91 19.87 19.91 20.88 20.53 21.5Z" />
			</g>
		</g>
	</g>
</svg>