<?xml version="1.0" standalone="no"?>
<!DOCTYPE svg PUBLIC "-//W3C//DTD SVG 1.1//EN" "http://www.w3.org/Graphics/SVG/1.1/DTD/svg11.dtd" >
<svg xmlns="http://www.w3.org/2000/svg">
<metadata>Generated by IcoMoon</metadata>
<defs>
<font id="icons" horiz-adv-x="1024">
<font-face units-per-em="1024" ascent="960" descent="-64" />
<missing-glyph horiz-adv-x="1024" />
<glyph unicode="&#x20;" horiz-adv-x="512" d="" />
<glyph unicode="&#xe900;" glyph-name="cart" horiz-adv-x="768" d="M640 832h-64c0 70.827-86.187 128-192 128-106.24 0-192-57.173-192-128h-64c-70.4 0-128-57.173-128-128v-640c0-70.4 57.6-127.573 128-127.573h512c70.4 0 127.573 57.173 127.573 127.573v640c0 70.827-57.173 128-127.573 128zM384 896c70.827 0 128-19.627 128-64h-256c0 44.373 57.173 64 128 64zM703.573 64c0-34.987-28.587-63.573-63.573-63.573h-512c-35.413 0-64 28.587-64 63.573v64h639.573v-64zM703.573 192h-639.573v512c0 35.413 28.587 64 64 64h64v-192h64v192h256v-192h64v192h64c34.987 0 63.573-28.587 63.573-64v-512z" />
<glyph unicode="&#xe901;" glyph-name="left" horiz-adv-x="561" d="M533.462-63.719l-533.462 511.719 533.462 511.719 27.634-28.055-504.004-483.665 504.004-483.665-27.634-28.055z" />
<glyph unicode="&#xe902;" glyph-name="play" d="M437.833 201.947c-4.242 0-8.631 0.878-12.727 2.779-10.533 4.974-17.408 15.653-17.408 27.355v431.835c0 11.703 6.875 22.382 17.408 27.355s23.113 3.365 32.037-4.096l259.218-216.064c6.875-5.705 10.825-14.19 10.825-23.113s-3.95-17.408-10.825-23.113l-259.218-215.918c-5.413-4.681-12.288-7.022-19.31-7.022zM467.968 599.698v-303.25l181.979 151.552-181.979 151.698zM511.122-64c-85.87 0-172.178 21.358-250.295 65.39-14.482 8.192-19.602 26.624-11.41 41.106 8.046 14.482 26.478 19.602 40.96 11.41 175.835-98.889 398.336-68.315 541.257 74.459 176.128 176.274 176.128 462.994 0 639.269-176.274 176.274-462.994 176.274-639.269 0s-176.274-462.994 0-639.269c11.703-11.703 11.703-30.72 0-42.569-11.703-11.703-30.866-11.703-42.569 0-199.826 199.826-199.826 524.727 0 724.407 199.68 199.826 524.581 199.826 724.407 0 199.68-199.68 199.68-524.581 0-724.407-98.45-98.304-230.107-149.797-363.081-149.797z" />
<glyph unicode="&#xe903;" glyph-name="array" horiz-adv-x="640" d="M121.6-40.96l491.52 444.16c26.88 24.32 26.88 65.28 0 89.6l-3.84 1.28-487.68 442.88c-26.88 24.32-71.68 24.32-99.84 0v0c-12.8-11.52-21.76-28.16-21.76-46.080v-885.76c0-17.92 8.96-33.28 23.040-44.8l-1.28-1.28c28.16-24.32 72.96-24.32 99.84 0z" />
<glyph unicode="&#xe904;" glyph-name="arrow" horiz-adv-x="640" d="M121.6-40.96l491.52 444.16c26.88 24.32 26.88 65.28 0 89.6l-3.84 1.28-487.68 442.88c-26.88 24.32-71.68 24.32-99.84 0v0c-12.8-11.52-21.76-28.16-21.76-46.080v-885.76c0-17.92 8.96-33.28 23.040-44.8l-1.28-1.28c28.16-24.32 72.96-24.32 99.84 0z" />
<glyph unicode="&#xe905;" glyph-name="before" d="M512 960c-282.819 0-512-229.181-512-512s229.181-512 512-512c282.819 0 512 229.181 512 512s-229.181 512-512 512zM672.427 423.619l-221.379-221.379c-13.166-13.166-35.109-13.166-48.274 0-13.166 13.653-13.166 35.109 0 48.274l197.486 197.486-197.486 197.486c-13.166 13.166-13.166 34.621 0 48.274 13.166 13.166 35.109 13.166 48.274 0l221.379-221.379c6.827-6.827 10.24-15.604 9.752-24.381 0-8.777-2.926-17.554-9.752-24.381z" />
<glyph unicode="&#xe906;" glyph-name="blog" d="M671.884 416.116h-319.767c-17.687 0-32.116-14.429-32.116-32.116s14.429-31.884 32.116-31.884h319.767c17.687 0 32.116 14.196 32.116 31.884s-14.429 32.116-32.116 32.116zM735.884 607.884h-447.767c-17.687 0-32.116-14.196-32.116-31.884s14.429-31.884 32.116-31.884h447.767c17.687 0 32.116 14.196 32.116 31.884s-14.429 31.884-32.116 31.884zM512 960c-282.764 0-512-200.611-512-448 0-141.265 75.171-267.171 192-349.324v-226.676l224.349 136.145c30.953-5.12 62.836-8.145 95.651-8.145 282.764 0 512 200.611 512 448s-229.236 448-512 448zM512 128c-37.469 0-73.542 4.422-108.218 11.869l-150.575-90.531 2.095 148.247c-115.433 69.585-191.302 184.32-191.302 314.415 0 212.015 200.611 384 448 384s448-171.985 448-384c0-212.015-200.611-384-448-384z" />
<glyph unicode="&#xe907;" glyph-name="clients" d="M464.058 256c132.422 0 239.942 131.025 239.942 292.073s-107.52 291.84-239.942 291.84c-65.629 0-126.604-31.185-172.218-87.971-43.753-54.924-67.956-127.302-67.956-203.869 0-161.047 107.753-292.073 240.175-292.073zM464.058 775.913c97.047 0 175.942-102.167 175.942-227.84 0-125.905-78.895-228.073-175.942-228.073s-176.175 102.167-176.175 228.073c0 125.673 79.127 227.84 176.175 227.84zM665.6 288.116c-17.687 0-32.116-14.429-32.116-32.116s14.429-31.884 32.116-31.884c109.382 0 198.284-89.135 198.284-198.516 0-14.196-11.404-25.6-25.6-25.6h-748.684c-14.196 0-25.6 11.404-25.6 25.6 0 109.382 88.902 198.516 198.284 198.516 17.687 0 32.116 14.196 32.116 31.884s-14.429 32.116-32.116 32.116c-144.524 0-262.284-117.76-262.284-262.516 0-49.338 40.262-89.6 89.6-89.6h748.684c49.571 0 89.6 40.262 89.6 89.6 0 144.756-117.527 262.516-262.284 262.516zM487.331 875.52c23.040 13.498 47.476 20.48 72.611 20.48 97.047 0 175.942-102.4 175.942-228.073 0-22.575-2.327-44.684-7.215-65.862-4.189-16.989 6.516-34.211 23.738-38.4 2.327-0.465 4.887-0.698 7.215-0.698 14.662 0 27.695 9.775 31.185 24.669 6.051 25.833 9.076 52.829 9.076 80.291 0 161.047-107.52 292.073-239.942 292.073-36.305 0-72.611-10.24-105.193-29.324-15.127-9.076-20.247-28.625-11.171-43.753 9.076-15.36 28.625-20.247 43.753-11.404zM768 416.116c-17.687 0-32.116-14.429-32.116-32.116s14.429-31.884 32.116-31.884c109.382 0 192-91.229 192-200.611 0-3.724-0.698-7.215-2.095-10.473-7.215-16.291 0-35.142 16.058-42.356 4.189-1.862 8.611-2.56 13.033-2.56 12.335 0 23.971 6.982 29.324 18.851 5.12 11.636 7.68 23.738 7.68 36.538 0 144.524-111.244 264.611-256 264.611z" />
<glyph unicode="&#xe908;" glyph-name="cups" horiz-adv-x="1117" d="M1071.476-34.909c0-16.058-12.8-29.091-28.625-29.091h-1014.225c-15.825 0-28.625 13.033-28.625 29.091s12.8 29.091 28.625 29.091h1014.225c15.825 0 28.625-13.033 28.625-29.091zM506.647 443.113c5.585-5.353 12.567-7.913 19.549-7.913 7.68 0 15.36 3.025 20.945 9.309 10.938 11.636 10.24 30.022-1.396 41.193-49.105 46.545-38.633 141.265 3.724 194.793 57.484 72.611 70.051 202.007-3.724 271.593-11.636 10.938-29.789 10.473-40.495-1.396-10.938-11.636-10.24-30.255 1.396-41.193 44.218-41.658 43.287-135.447-2.095-192.698-29.789-37.702-47.476-87.971-48.64-138.473-1.396-54.924 16.524-102.865 50.735-135.215zM1117.091 503.622v-55.855c0-80.058-64.233-145.222-143.127-145.222h-64.233c-43.52-122.647-159.418-210.618-295.098-210.618h-157.556c-172.916 0-313.716 142.429-313.716 317.905v288.815c0 16.058 13.033 29.091 28.858 29.091h184.087c37.469 57.716 35.84 142.662-5.818 181.76-11.636 11.171-12.102 29.556-1.396 41.193 10.938 11.869 29.091 12.335 40.727 1.396 73.542-69.585 60.975-198.982 3.491-271.593-42.356-53.527-52.829-148.247-3.491-194.793 11.404-11.171 12.102-29.556 1.396-41.193-10.938-11.869-29.091-12.335-40.727-1.396-33.978 32.349-52.131 80.291-50.735 135.215 0.698 31.418 7.913 62.836 20.48 91.229h-119.389v-259.724c0-143.36 114.967-259.724 256.233-259.724h157.556c141.033 0 256 116.364 256 259.724v259.724h-215.971c-15.825 0-28.625 13.033-28.625 29.091s12.8 29.091 28.625 29.091h244.829c15.825 0 28.625-13.033 28.625-29.091v-50.036h45.847c78.895 0 143.127-64.931 143.127-144.989zM1059.607 503.622c0 47.942-38.4 86.807-85.644 86.807h-45.847v-229.702h45.847c47.244 0 85.644 39.098 85.644 87.040v55.855z" />
<glyph unicode="&#xe909;" glyph-name="customization" d="M1022.371 451.491c0 37.702-27.229 77.964-60.742 89.833s-65.862 40.727-75.404 63.767c-9.309 22.807-6.982 66.327 8.378 98.444 15.127 32.116 5.818 79.825-20.713 106.589-26.764 26.531-74.24 35.84-106.356 20.48-32.116-15.127-75.636-17.687-98.444-8.145-23.040 9.309-51.898 41.891-63.767 75.404-12.102 33.513-52.364 60.509-90.065 60.509s-77.964-26.996-89.833-60.509c-11.869-33.513-40.96-66.095-63.767-75.404-22.807-9.542-66.327-6.982-98.444 8.145-32.116 15.36-79.825 6.051-106.356-20.48-26.764-26.764-36.073-74.473-20.713-106.589s17.687-75.636 8.145-98.444c-9.309-22.807-41.658-51.898-75.171-63.767s-60.742-52.131-60.742-89.833c0-37.702 27.229-77.964 60.742-89.833s65.862-40.96 75.404-63.767c9.309-22.807 6.982-66.327-8.378-98.444s-6.051-79.825 20.713-106.589c26.531-26.531 74.24-35.84 106.356-20.48 32.116 15.127 75.636 17.687 98.444 8.145s51.898-41.891 63.767-75.404c11.869-33.513 52.131-60.509 89.833-60.509s77.964 26.996 90.065 60.509c11.869 33.513 40.727 65.862 63.535 75.404 23.040 9.542 66.56 6.982 98.676-8.145 32.116-15.36 79.593-6.051 106.356 20.48 26.531 26.764 35.84 74.473 20.713 106.589-15.36 32.116-17.92 75.636-8.378 98.444 9.309 22.807 41.891 51.898 75.404 63.767s60.742 52.131 60.742 89.833zM515.258 265.542c-102.865 0-185.949 83.084-185.949 185.716 0 102.865 83.084 185.949 185.949 185.949 102.633 0 185.949-83.084 185.949-185.949 0-102.633-83.316-185.716-185.949-185.716z" />
<glyph unicode="&#xe90a;" glyph-name="development" horiz-adv-x="1126" d="M559.36 957.184l-548.864-295.936 548.864-295.936 548.864 295.936-548.864 295.936zM559.36 269.824l-446.72 240.896-102.144-55.040 548.864-295.68 548.864 295.68-102.144 55.040-446.72-240.896zM559.36 64.512l-446.72 240.896-102.144-55.040 548.864-295.936 548.864 295.936-102.144 55.040-446.72-240.896z" />
<glyph unicode="&#xe90b;" glyph-name="launched" horiz-adv-x="1257" d="M1217.396 14.895h-1178.065c-21.644 0-39.331-17.687-39.331-39.331 0-21.876 17.687-39.564 39.331-39.564h1178.065c21.644 0 39.331 17.687 39.331 39.564 0 21.644-17.687 39.331-39.331 39.331zM667.695 802.444v78.662h78.429c21.644 0 39.331 17.687 39.331 39.564 0 21.644-17.687 39.331-39.331 39.331h-235.52c-21.644 0-39.331-17.687-39.331-39.331 0-21.876 17.687-39.564 39.331-39.564h78.429c0 0-0.233-81.92 0-78.662-328.611-20.48-589.033-295.331-589.033-629.993 0-32.116 0-17.687 0-39.564 0-21.644 17.687-39.331 39.331-39.331h1178.065c21.644 0 39.331 17.687 39.331 39.331 0 21.876 0 5.12 0 39.564 0 334.662-260.422 609.513-589.033 629.993zM78.662 172.451c0 304.407 245.993 551.098 549.702 551.098s549.702-246.691 549.702-551.098h-1099.404z" />
<glyph unicode="&#xe90c;" glyph-name="left-min" d="M352.815 474.531l222.022 222.022c13.498 13.498 35.375 13.498 48.873 0 13.033-13.498 13.033-35.375 0-48.407l-198.284-198.284 198.284-197.818c13.033-13.498 13.033-34.909 0-48.407-13.498-13.498-35.375-13.498-48.873 0l-222.022 222.022c-6.516 6.982-9.775 15.36-9.775 24.204s3.258 17.687 9.775 24.669zM511.535 958.604c282.065 0 511.069-228.538 511.069-511.069s-229.004-511.069-511.069-511.069c-282.531 0-511.535 228.538-511.535 511.069s229.004 511.069 511.535 511.069zM511.535 4.887c243.898 0 442.647 198.749 442.647 442.647s-198.749 442.647-442.647 442.647c-244.364 0-443.113-198.749-443.113-442.647s198.749-442.647 443.113-442.647z" />
<glyph unicode="&#xe90d;" glyph-name="likes" d="M704 960c-9.775 0-19.782-0.698-29.556-1.396-3.491-0.465-6.982-0.931-10.705-1.396-5.818-0.698-11.869-1.629-17.687-2.793-4.422-0.698-8.844-1.629-13.033-2.56-4.887-1.164-9.775-2.56-14.662-3.724-4.655-1.396-9.076-2.56-13.731-4.189-3.956-1.164-8.145-2.793-12.102-4.422-10.705-3.956-21.178-8.378-31.185-13.498-2.095-0.931-4.189-1.862-6.051-3.025-5.353-2.793-10.473-5.818-15.825-9.076-2.793-1.629-5.585-3.258-8.378-5.12-5.12-3.258-9.775-6.516-14.662-10.007-1.396-1.164-3.025-2.095-4.422-3.025-55.389 41.658-122.647 64.233-192 64.233-176.407 0-320-143.593-320-320 0-289.513 186.182-551.564 498.269-700.742 4.189-2.095 9.076-3.258 13.731-3.258s9.542 1.164 13.731 3.258c312.087 149.178 498.269 411.229 498.269 700.742 0 176.407-143.593 320-320 320zM512 3.491c-280.902 139.404-448 376.32-448 636.509 0 141.265 114.735 256 256 256 51.665 0 101.702-15.825 144.058-44.916-49.571-56.553-80.058-130.327-80.058-211.084 0-17.687 14.196-31.884 32.116-31.884 17.687 0 31.884 14.196 31.884 31.884 0 76.102 33.745 144.524 86.575 191.535 4.887 4.422 10.007 8.378 15.36 12.335 1.164 0.931 2.327 1.862 3.491 2.793 5.12 3.724 10.24 7.215 15.593 10.473 1.396 0.931 3.025 1.862 4.422 2.793 5.12 3.025 10.473 5.818 15.825 8.611 1.862 0.931 3.724 1.862 5.585 2.793 5.12 2.327 10.473 4.655 15.593 6.749 2.327 0.931 4.655 1.629 7.215 2.56 4.887 1.862 10.007 3.491 14.895 4.887 3.258 0.931 6.051 1.862 9.309 2.56 4.655 1.164 9.076 2.327 13.731 3.258 4.189 0.698 8.611 1.164 12.8 1.862 3.491 0.465 7.215 1.164 10.938 1.629 8.145 0.698 16.291 1.164 24.669 1.164 141.265 0 256-114.735 256-256 0-260.189-167.098-497.105-448-636.509zM704 832c-17.687 0-32.116-14.429-32.116-31.884 0-17.687 14.429-32.116 32.116-32.116 70.516 0 128-57.484 128-128 0-17.687 14.196-31.884 31.884-31.884s32.116 14.196 32.116 31.884c0 105.891-86.109 192-192 192z" />
<glyph unicode="&#xe90e;" glyph-name="link" d="M925.538 861.932c-94.523 94.523-249.698 94.523-344.222 0l-186.289-186.289c63.803 18.117 133.12 13.391 193.378-14.572l96.886 96.492c37.415 37.809 98.462 37.809 136.271 0 37.415-37.415 37.415-98.462 0-136.271l-121.698-121.698-79.951-79.557c-37.415-37.809-98.462-37.809-136.271 0l-103.975-104.369c24.418-24.025 52.382-42.142 81.92-53.563 79.951-31.508 172.505-19.692 242.215 35.446 7.089 5.514 14.178 11.422 20.48 18.117l125.243 125.637 76.012 76.012c95.311 94.523 95.311 249.305 0 344.615zM430.868 230.597l-92.554-92.948c-37.809-37.415-98.855-37.415-136.271 0-37.809 37.809-37.809 98.855 0 136.271l201.255 201.649c37.415 37.415 98.462 37.415 136.271 0l103.975 103.975c-24.025 24.418-52.382 42.535-81.92 53.957-83.889 33.477-182.351 18.117-252.849-44.898-3.545-2.757-6.695-6.302-9.452-9.058l-201.649-201.255c-94.523-94.917-94.523-250.092 0-344.615 94.917-94.917 249.698-94.917 344.615 0l181.957 183.926c-92.948-21.268-114.215-18.905-193.378 12.997z" />
<glyph unicode="&#xe90f;" glyph-name="lupa" horiz-adv-x="1065" d="M462.848 792.883c-29.491 0-53.658-23.757-53.658-53.248 0-29.082 24.166-52.838 53.658-52.838 65.946 0 124.928-36.454 153.6-94.618 9.421-18.842 28.672-29.901 48.333-29.901 8.192 0 15.974 1.638 23.757 5.325 26.624 12.698 38.093 44.646 24.986 70.861-47.104 95.437-143.36 154.419-250.675 154.419zM1042.842 63.795l-179.814 176.947c53.248 73.728 84.787 163.43 84.787 260.506 0 248.627-205.619 450.97-457.933 450.97-252.723 0-457.933-202.342-457.933-450.97 0-249.037 205.21-451.379 457.933-451.379 105.267 0 202.342 35.635 279.757 95.027l177.766-174.899c13.107-13.107 30.31-19.661 47.514-19.661s34.816 6.554 47.923 19.661c26.214 25.805 26.214 67.994 0 93.798zM139.674 501.248c0 190.054 156.877 344.883 350.208 344.883 192.922 0 350.208-154.829 350.208-344.883 0-79.053-27.443-151.962-73.318-210.534-14.746-19.251-31.949-36.864-50.79-52.429-61.030-51.2-140.083-82.33-226.099-82.33-193.331 0-350.208 154.829-350.208 345.293z" />
<glyph unicode="&#xe910;" glyph-name="marketing" horiz-adv-x="1479" d="M256 583.111c28.444 58.596 98.702 102.684 163.271 102.684h745.529v47.218c0 38.684-31.573 70.542-69.973 70.542h-307.769v40.96c0 58.596-46.933 106.098-104.676 106.098h-178.916c-27.876 0-54.329-11.093-74.24-31.289-19.911-19.911-30.72-46.364-30.72-74.809v-40.96h-307.484c-38.684 0-69.973-31.858-69.973-70.542v-630.613l234.951 480.711zM468.48 844.516c0 9.387 3.698 18.204 10.24 25.031s15.36 10.24 24.747 10.24h178.916c19.342 0 34.987-15.644 34.987-35.271v-40.96h-248.889v40.96zM1192.391-0.284c-16.782-34.702-62.293-63.147-100.693-63.147h-1004.089c-38.4 0-56.036 28.444-38.969 63.147l269.938 552.391c17.067 34.702 62.293 63.147 100.693 63.147h1004.089c38.4 0 56.036-28.444 38.969-63.147l-269.938-552.391z" />
<glyph unicode="&#xe911;" glyph-name="right-min" d="M671.185 474.531l-222.487 222.022c-13.033 13.498-34.909 13.498-48.407 0-13.033-13.498-13.033-35.375 0-48.407l198.284-198.284-198.284-197.818c-13.033-13.498-13.033-34.909 0-48.407 13.498-13.498 35.375-13.498 48.407 0l222.487 222.022c6.516 6.982 9.775 15.36 9.775 24.204s-3.258 17.687-9.775 24.669zM512.465 958.604c-282.065 0-511.069-228.538-511.069-511.069s229.004-511.069 511.069-511.069c282.531 0 511.535 228.538 511.535 511.069s-229.004 511.069-511.535 511.069zM512.465 4.887c-243.898 0-442.647 198.749-442.647 442.647s198.749 442.647 442.647 442.647c244.364 0 442.647-198.749 442.647-442.647s-198.284-442.647-442.647-442.647z" />
<glyph unicode="&#xe912;" glyph-name="web" d="M996.206 594.913c-13.166 12.957-34.064 12.957-47.020 0l-289.437-289.228-406.674-179.304-62.694 62.694 179.096 406.883 289.437 289.228c12.957 13.166 12.957 34.064 0 47.020-13.166 12.957-34.064 12.957-47.020 0l-298.214-298.005-302.602-686.916 686.916 302.393 298.214 298.214c12.957 12.957 12.957 34.064 0 47.020zM574.694 365.035c6.478-6.269 14.838-9.613 23.406-9.613s16.927 3.344 23.615 9.613l278.57 278.779c12.957 12.957 12.957 33.855 0 47.020-13.166 12.957-34.064 12.957-47.020 0l-278.57-278.779c-12.957-12.957-12.957-33.855 0-47.020zM501.969 437.76c6.478-6.269 14.838-9.613 23.406-9.613s16.927 3.344 23.406 9.613l278.779 278.779c12.957 12.957 12.957 34.064 0 47.020-13.166 12.957-34.064 12.957-47.020 0l-278.57-278.57c-13.166-12.957-13.166-34.064 0-47.229zM429.035 510.694c6.478-6.478 15.047-9.822 23.615-9.822s16.927 3.344 23.406 9.822l278.779 278.57c12.957 12.957 12.957 34.064 0 47.020s-34.064 12.957-47.020 0l-278.779-278.57c-12.957-12.957-12.957-34.064 0-47.020z" />
<glyph unicode="&#xe913;" glyph-name="right" horiz-adv-x="561" d="M27.634-63.719l533.462 511.719-533.462 511.719-27.634-28.055 504.004-483.665-504.004-483.665 27.634-28.055z" />
<glyph unicode="&#xe914;" glyph-name="search" d="M1013.76-7.68l-264.107 259.84c69.12 75.52 111.787 174.933 111.787 284.16 0 234.24-192.853 423.68-430.933 423.68-237.653 0-430.507-189.44-430.507-423.68s192.853-423.68 430.507-423.68c102.827 0 197.12 35.413 271.36 94.72l264.96-261.12c13.227-12.8 34.133-12.8 46.933 0s12.8 33.28 0 46.080zM430.507 177.92c-200.96 0-364.373 160.427-364.373 358.4s163.413 358.827 364.373 358.827c201.387 0 364.373-160.853 364.373-358.827s-162.987-358.4-364.373-358.4z" />
</font>
</defs>
</svg>
