<svg xmlns="http://www.w3.org/2000/svg" viewBox="0 0 22 22" width="22" height="22">
	<style>
		tspan { white-space:pre }
		.shp0 { fill: #d1d1d1 } 
	</style>
	<g id="CONTENT">
		<g id="Recent Posts">
			<g id="Arrows">
				<path id="left" class="shp0" d="M7.58 10.43L12.35 5.66C12.64 5.37 13.11 5.37 13.4 5.66C13.68 5.95 13.68 6.42 13.4 6.7L9.14 10.96L13.4 15.21C13.68 15.5 13.68 15.96 13.4 16.25C13.11 16.54 12.64 16.54 12.35 16.25L7.58 11.48C7.44 11.33 7.37 11.15 7.37 10.96C7.37 10.77 7.44 10.58 7.58 10.43ZM10.99 0.03C17.05 0.03 21.97 4.94 21.97 11.01C21.97 17.08 17.05 21.99 10.99 21.99C4.92 21.99 0 17.08 0 11.01C0 4.94 4.92 0.03 10.99 0.03ZM10.99 20.52C16.23 20.52 20.5 16.25 20.5 11.01C20.5 5.77 16.23 1.5 10.99 1.5C5.74 1.5 1.47 5.77 1.47 11.01C1.47 16.25 5.74 20.52 10.99 20.52Z" />
			</g>
		</g>
	</g>
</svg>