<svg xmlns="http://www.w3.org/2000/svg" viewBox="0 0 22 22" width="22" height="22">
	<style>
		tspan { white-space:pre }
		.shp0 { fill: #c7b299 } 
	</style>
	<g id="CONTENT">
		<g id="Recent Posts">
			<g id="Arrows">
				<path id="right" class="shp0" d="M14.42 10.43L9.64 5.66C9.36 5.37 8.89 5.37 8.6 5.66C8.32 5.95 8.32 6.42 8.6 6.7L12.86 10.96L8.6 15.21C8.32 15.5 8.32 15.96 8.6 16.25C8.89 16.54 9.36 16.54 9.64 16.25L14.42 11.48C14.56 11.33 14.63 11.15 14.63 10.96C14.63 10.77 14.56 10.58 14.42 10.43ZM11.01 0.03C4.95 0.03 0.03 4.94 0.03 11.01C0.03 17.08 4.95 21.99 11.01 21.99C17.08 21.99 22 17.08 22 11.01C22 4.94 17.08 0.03 11.01 0.03ZM11.01 20.52C5.77 20.52 1.5 16.25 1.5 11.01C1.5 5.77 5.77 1.5 11.01 1.5C16.26 1.5 20.52 5.77 20.52 11.01C20.52 16.25 16.26 20.52 11.01 20.52Z" />
			</g>
		</g>
	</g>
</svg>