<svg xmlns="http://www.w3.org/2000/svg" viewBox="0 0 18 24" width="18" height="24">
	<style>
		tspan { white-space:pre }
		.shp0 { fill: #ffffff } 
	</style>
	<g id="HEADER">
		<g id="Cart">
			<path id="icon-cart" class="shp0" d="M15 3L13.5 3C13.5 1.34 11.48 0 9 0C6.51 0 4.5 1.34 4.5 3L3 3C1.35 3 0 4.34 0 6L0 21C0 22.65 1.35 23.99 3 23.99L15 23.99C16.65 23.99 17.99 22.65 17.99 21L17.99 6C17.99 4.34 16.65 3 15 3ZM9 1.5C10.66 1.5 12 1.96 12 3L6 3C6 1.96 7.34 1.5 9 1.5ZM16.49 21C16.49 21.82 15.82 22.49 15 22.49L3 22.49C2.17 22.49 1.5 21.82 1.5 21L1.5 19.5L16.49 19.5L16.49 21ZM16.49 18L1.5 18L1.5 6C1.5 5.17 2.17 4.5 3 4.5L4.5 4.5L4.5 9L6 9L6 4.5L12 4.5L12 9L13.5 9L13.5 4.5L15 4.5C15.82 4.5 16.49 5.17 16.49 6L16.49 18Z" />
		</g>
	</g>
</svg>